<?xml version="1.0" encoding="UTF-8" standalone="no"?>
<!DOCTYPE svg PUBLIC "-//W3C//DTD SVG 20010904//EN"
              "http://www.w3.org/TR/2001/REC-SVG-20010904/DTD/svg10.dtd">

<svg xmlns="http://www.w3.org/2000/svg"
     width="2in" height="2in"
     viewBox="0 0 600 600">
  <path id="Selection"
        fill="white" stroke="none" stroke-width="1"
        d="M 75.00,242.00
           C 64.08,246.66 52.36,259.68 40.00,259.99
             33.59,260.14 29.02,259.36 24.21,254.67
             17.41,248.05 16.90,232.61 23.41,225.62
             26.23,222.60 44.28,211.31 48.92,208.50
             48.92,208.50 56.04,203.43 56.04,203.43
             56.04,203.43 82.84,185.24 82.84,185.24
             82.84,185.24 93.00,177.37 93.00,177.37
             93.00,177.37 117.00,161.29 117.00,161.29
             117.00,161.29 132.28,148.40 132.28,148.40
             132.28,148.40 162.00,128.38 162.00,128.38
             162.00,128.38 180.28,115.99 180.28,115.99
             180.28,115.99 197.91,106.64 197.91,106.64
             197.91,106.64 224.09,91.63 224.09,91.63
             224.09,91.63 231.58,87.89 231.58,87.89
             231.58,87.89 275.00,60.19 275.00,60.19
             287.43,51.86 294.92,44.19 311.00,44.00
             316.99,43.93 322.56,43.65 327.79,47.21
             330.95,49.37 332.12,53.01 334.53,55.91
             334.53,55.91 345.42,66.18 345.42,66.18
             345.42,66.18 355.95,73.72 355.95,73.72
             355.95,73.72 369.91,85.25 369.91,85.25
             369.91,85.25 380.58,93.17 380.58,93.17
             380.58,93.17 392.42,105.00 392.42,105.00
             392.42,105.00 413.42,127.68 413.42,127.68
             413.42,127.68 442.72,154.17 442.72,154.17
             442.72,154.17 450.44,162.56 450.44,162.56
             450.44,162.56 489.00,199.09 489.00,199.09
             489.00,199.09 495.59,206.55 495.59,206.55
             495.59,206.55 501.38,211.77 501.38,211.77
             501.38,211.77 508.17,219.42 508.17,219.42
             508.17,219.42 539.59,251.56 539.59,251.56
             539.59,251.56 544.58,256.13 544.58,256.13
             544.58,256.13 564.23,277.40 564.23,277.40
             564.23,277.40 583.55,295.05 583.55,295.05
             590.70,303.69 591.80,318.87 581.68,325.93
             577.64,328.75 572.75,329.10 568.00,328.99
             554.99,328.67 544.46,317.27 536.29,308.24
             536.29,308.24 523.82,296.42 523.82,296.42
             514.46,286.26 505.86,275.69 495.00,267.00
             495.00,267.00 495.00,320.00 495.00,320.00
             495.02,329.66 495.90,326.55 496.79,333.00
             496.79,333.00 498.00,353.00 498.00,353.00
             498.00,353.00 498.00,376.00 498.00,376.00
             498.00,376.00 499.00,391.00 499.00,391.00
             499.00,391.00 500.00,415.00 500.00,415.00
             500.00,415.00 501.26,433.00 501.26,433.00
             502.29,439.29 502.98,436.37 503.00,445.00
             503.00,445.00 503.00,476.00 503.00,476.00
             503.00,476.00 500.17,493.00 500.17,493.00
             500.17,493.00 498.88,505.00 498.88,505.00
             498.88,505.00 498.88,515.00 498.88,515.00
             497.46,521.73 491.54,527.91 484.91,529.79
             482.82,530.12 478.30,530.03 476.00,529.79
             464.61,529.84 467.74,525.16 456.00,525.09
             456.00,525.09 444.00,525.09 444.00,525.09
             436.99,525.92 438.93,526.98 429.00,527.00
             429.00,527.00 370.00,527.00 370.00,527.00
             370.00,527.00 353.00,526.00 353.00,526.00
             353.00,526.00 306.00,526.00 306.00,526.00
             306.00,526.00 289.00,527.00 289.00,527.00
             289.00,527.00 176.00,527.00 176.00,527.00
             176.00,527.00 161.00,526.00 161.00,526.00
             161.00,526.00 144.00,526.00 144.00,526.00
             144.00,526.00 122.00,525.00 122.00,525.00
             122.00,525.00 105.00,524.00 105.00,524.00
             97.72,523.99 90.33,524.40 83.17,522.80
             83.17,522.80 77.91,521.22 77.91,521.22
             77.91,521.22 67.09,518.76 67.09,518.76
             56.34,514.81 49.65,506.65 50.02,495.01
             50.26,487.32 54.65,483.84 57.88,477.91
             57.88,477.91 62.69,464.83 62.69,464.83
             62.69,464.83 65.04,454.00 65.04,454.00
             65.04,454.00 69.30,441.96 69.30,441.96
             69.30,441.96 73.94,416.00 73.94,416.00
             73.94,416.00 73.94,408.00 73.94,408.00
             73.94,408.00 76.96,381.00 76.96,381.00
             76.96,381.00 76.96,372.00 76.96,372.00
             76.96,372.00 78.00,361.00 78.00,361.00
             78.06,348.31 79.04,353.58 79.87,346.96
             81.43,334.54 82.02,322.51 82.00,310.00
             82.00,310.00 79.73,282.09 79.73,282.09
             79.04,278.55 77.32,277.86 76.13,270.00
             74.64,260.13 75.00,251.88 75.00,242.00 Z
           M 460.00,232.00
           C 457.98,226.19 453.43,223.00 449.07,218.87
             449.07,218.87 439.08,208.82 439.08,208.82
             439.08,208.82 429.59,200.27 429.59,200.27
             429.59,200.27 410.08,180.83 410.08,180.83
             410.08,180.83 391.00,163.83 391.00,163.83
             391.00,163.83 384.34,156.43 384.34,156.43
             384.34,156.43 378.04,150.95 378.04,150.95
             378.04,150.95 371.64,143.58 371.64,143.58
             362.98,134.18 353.92,124.34 343.42,117.00
             343.42,117.00 316.99,96.37 316.99,96.37
             314.24,94.36 310.43,90.20 307.00,90.07
             303.75,89.94 291.86,98.37 288.72,100.74
             288.72,100.74 254.00,122.00 254.00,122.00
             254.00,122.00 227.08,136.93 227.08,136.93
             227.08,136.93 219.96,141.37 219.96,141.37
             219.96,141.37 206.00,148.75 206.00,148.75
             206.00,148.75 186.00,161.96 186.00,161.96
             186.00,161.96 175.04,169.01 175.04,169.01
             175.04,169.01 168.83,173.90 168.83,173.90
             168.83,173.90 162.28,177.78 162.28,177.78
             162.28,177.78 147.00,190.69 147.00,190.69
             147.00,190.69 121.72,207.73 121.72,207.73
             119.33,209.42 113.54,213.49 112.69,216.20
             112.00,218.37 113.68,220.11 114.45,223.04
             115.09,225.52 115.00,228.43 115.00,231.00
             115.00,231.00 115.00,249.00 115.00,249.00
             115.09,256.30 116.73,263.86 118.22,271.00
             118.22,271.00 119.88,278.00 119.88,278.00
             119.88,278.00 122.00,300.00 122.00,300.00
             122.00,300.00 122.00,329.00 122.00,329.00
             122.00,329.00 120.11,350.99 120.11,350.99
             118.44,360.91 118.16,352.59 118.00,367.00
             118.00,367.00 117.00,385.00 117.00,385.00
             117.00,385.00 114.00,417.00 114.00,417.00
             114.00,417.00 114.00,422.00 114.00,422.00
             113.95,429.92 112.95,427.55 111.88,434.04
             111.88,434.04 108.17,455.00 108.17,455.00
             108.17,455.00 104.21,466.00 104.21,466.00
             104.21,466.00 102.55,473.83 102.55,473.83
             101.13,478.86 100.54,477.65 100.00,484.00
             100.00,484.00 165.00,486.00 165.00,486.00
             165.00,486.00 182.00,487.00 182.00,487.00
             182.00,487.00 285.00,487.00 285.00,487.00
             285.00,487.00 300.00,486.00 300.00,486.00
             300.00,486.00 357.00,486.00 357.00,486.00
             357.00,486.00 374.00,487.00 374.00,487.00
             374.00,487.00 419.00,487.00 419.00,487.00
             433.28,486.98 445.55,481.49 460.00,485.00
             460.00,485.00 463.00,466.00 463.00,466.00
             463.00,466.00 463.00,450.00 463.00,450.00
             462.98,440.32 461.79,443.45 461.02,437.96
             461.02,437.96 461.02,431.00 461.02,431.00
             461.02,431.00 460.00,417.00 460.00,417.00
             460.00,417.00 459.00,397.00 459.00,397.00
             459.00,397.00 458.00,383.00 458.00,383.00
             458.00,383.00 458.00,358.00 458.00,358.00
             458.00,358.00 455.00,326.00 455.00,326.00
             455.00,326.00 455.00,296.00 455.00,296.00
             455.00,296.00 455.00,269.00 455.00,269.00
             454.98,255.13 445.89,242.70 460.00,232.00 Z
           M 313.00,368.00
           C 307.02,377.96 284.23,384.73 273.00,384.99
             262.08,385.23 248.11,382.04 238.09,377.76
             238.09,377.76 231.91,374.59 231.91,374.59
             225.31,371.70 222.61,370.91 216.42,366.41
             204.46,357.69 191.31,341.56 181.56,330.15
             173.37,320.57 164.99,311.19 158.57,300.28
             158.57,300.28 145.68,276.83 145.68,276.83
             145.10,275.13 145.07,273.76 145.02,272.00
             144.95,269.73 144.96,266.25 145.54,264.09
             148.30,253.84 157.15,249.73 167.00,250.02
             182.94,250.48 186.04,266.59 193.35,277.28
             200.23,287.36 209.44,299.88 217.70,308.78
             217.70,308.78 227.59,318.27 227.59,318.27
             237.25,328.24 236.53,330.33 250.00,337.48
             262.63,344.53 274.03,347.10 285.83,337.48
             294.89,329.76 299.85,316.41 314.00,316.02
             321.71,315.80 330.07,319.29 335.24,325.21
             335.24,325.21 341.88,334.91 341.88,334.91
             346.59,341.44 351.38,348.50 357.29,354.00
             359.77,356.31 369.09,365.61 372.00,365.54
             374.70,365.47 380.83,358.62 383.17,356.55
             389.06,351.33 399.31,342.54 402.12,334.96
             404.32,329.06 400.71,320.79 408.61,313.46
             414.74,307.77 429.01,307.46 435.79,312.07
             437.73,313.38 439.25,315.42 440.42,317.43
             443.86,323.31 443.08,330.43 443.00,337.00
             442.89,345.97 441.15,346.61 438.21,354.04
             437.12,356.77 436.53,359.12 434.98,361.72
             434.98,361.72 428.33,371.00 428.33,371.00
             426.77,373.16 425.49,375.56 423.63,377.49
             423.63,377.49 407.16,391.63 407.16,391.63
             401.90,396.24 391.71,404.59 384.99,406.39
             382.37,407.09 379.68,407.00 377.00,407.00
             377.00,407.00 368.00,407.00 368.00,407.00
             351.26,406.97 338.68,395.86 328.00,383.96
             323.54,378.99 318.63,371.36 313.00,368.00 Z
           M 370.17,267.68
           C 377.49,265.98 385.95,266.93 391.51,272.49
             401.01,281.99 398.24,301.56 385.00,306.05
             378.66,308.20 367.89,307.27 362.67,302.77
             355.81,296.85 355.21,282.31 359.99,275.04
             362.34,271.47 366.38,269.42 370.17,267.68 Z
           M 156.17,368.68
           C 163.17,367.05 171.25,368.10 176.51,373.49
             185.32,382.53 183.45,401.93 170.99,406.56
             164.51,408.96 155.15,408.63 149.46,404.40
             141.82,398.72 141.03,383.58 145.99,376.04
             148.34,372.47 152.38,370.42 156.17,368.68 Z" />
</svg>
