<?xml version="1.0" encoding="UTF-8" standalone="no"?>
<!DOCTYPE svg PUBLIC "-//W3C//DTD SVG 20010904//EN"
              "http://www.w3.org/TR/2001/REC-SVG-20010904/DTD/svg10.dtd">

<svg xmlns="http://www.w3.org/2000/svg"
     width="2in" height="2in"
     viewBox="0 0 600 600">
  <path id="white"
        fill="white" stroke="none" stroke-width="1"
        d="M 220.42,5.69
           C 223.76,4.87 224.62,5.01 228.00,5.00
             228.00,5.00 244.00,5.00 244.00,5.00
             252.59,5.02 249.33,5.49 256.00,6.76
             272.94,9.97 287.64,18.96 302.17,27.85
             302.17,27.85 318.01,36.63 318.01,36.63
             318.01,36.63 335.17,49.34 335.17,49.34
             335.17,49.34 352.58,60.62 352.58,60.62
             352.58,60.62 363.36,71.55 363.36,71.55
             363.36,71.55 373.40,81.17 373.40,81.17
             380.51,89.87 385.64,100.00 390.60,110.00
             392.66,114.16 399.76,130.19 400.54,134.00
             400.54,134.00 401.75,141.00 401.75,141.00
             403.26,147.20 404.57,149.43 406.63,155.00
             406.63,155.00 410.46,167.00 410.46,167.00
             410.46,167.00 413.45,175.00 413.45,175.00
             413.45,175.00 418.04,205.96 418.04,205.96
             419.18,211.77 422.41,213.86 421.96,224.00
             421.42,236.37 412.33,241.30 401.00,240.98
             390.25,240.69 385.58,234.62 382.36,225.00
             382.36,225.00 375.55,189.00 375.55,189.00
             375.55,189.00 367.48,163.00 367.48,163.00
             367.48,163.00 363.57,152.00 363.57,152.00
             358.42,134.74 359.87,134.21 349.51,118.00
             349.51,118.00 345.25,111.09 345.25,111.09
             342.27,107.06 326.89,91.85 322.83,88.96
             322.83,88.96 313.42,83.45 313.42,83.45
             313.42,83.45 300.91,73.79 300.91,73.79
             300.91,73.79 284.17,63.67 284.17,63.67
             272.45,56.39 254.97,44.17 241.00,44.00
             227.23,43.84 230.30,43.87 219.91,51.04
             219.91,51.04 208.96,59.00 208.96,59.00
             196.41,69.45 187.47,78.08 178.83,92.00
             178.83,92.00 172.61,101.00 172.61,101.00
             168.58,107.65 166.05,114.92 163.00,122.00
             163.00,122.00 153.72,144.00 153.72,144.00
             153.72,144.00 150.68,159.96 150.68,159.96
             149.49,165.48 145.68,169.14 146.01,184.00
             146.01,184.00 148.26,212.91 148.26,212.91
             148.26,212.91 150.58,223.00 150.58,223.00
             150.58,223.00 152.18,241.00 152.18,241.00
             152.18,241.00 153.68,248.00 153.68,248.00
             153.68,248.00 155.19,263.00 155.19,263.00
             155.19,263.00 157.58,275.00 157.58,275.00
             157.58,275.00 158.28,284.00 158.28,284.00
             159.19,291.55 163.41,307.03 166.31,314.00
             169.17,320.86 175.96,327.68 176.87,335.00
             177.53,340.26 176.84,342.54 174.46,347.08
             170.16,355.29 164.90,357.23 156.00,356.98
             145.47,356.70 142.07,351.31 137.13,343.04
             134.52,338.66 133.72,337.89 131.58,333.00
             131.58,333.00 126.24,321.00 126.24,321.00
             126.24,321.00 124.24,311.00 124.24,311.00
             124.24,311.00 120.12,295.00 120.12,295.00
             120.12,295.00 115.27,255.00 115.27,255.00
             115.27,255.00 113.24,246.83 113.24,246.83
             113.24,246.83 111.82,230.00 111.82,230.00
             111.82,230.00 110.01,222.00 110.01,222.00
             110.01,222.00 110.01,213.00 110.01,213.00
             110.01,213.00 108.00,190.00 108.00,190.00
             108.00,190.00 108.00,173.00 108.00,173.00
             108.01,164.50 109.93,159.09 111.64,151.00
             116.90,126.12 119.79,120.68 130.10,98.00
             130.10,98.00 134.49,87.00 134.49,87.00
             134.49,87.00 141.94,75.00 141.94,75.00
             141.94,75.00 146.62,67.00 146.62,67.00
             146.62,67.00 156.41,54.84 156.41,54.84
             169.28,39.61 174.50,33.84 190.92,22.14
             195.33,19.00 204.42,12.17 209.04,9.91
             209.04,9.91 220.42,5.69 220.42,5.69 Z
           M 240.00,228.53
           C 244.77,227.76 246.48,227.89 251.00,229.74
             260.52,233.62 261.22,238.31 265.18,247.00
             269.53,256.56 270.44,258.37 271.72,269.00
             271.72,269.00 272.46,278.00 272.46,278.00
             272.46,278.00 274.86,288.00 274.86,288.00
             274.86,288.00 279.00,334.00 279.00,334.00
             279.00,334.00 279.00,344.00 279.00,344.00
             279.02,353.66 279.90,350.55 280.79,357.00
             280.79,357.00 283.00,386.00 283.00,386.00
             283.00,386.00 284.09,409.00 284.09,409.00
             284.09,409.00 285.99,425.00 285.99,425.00
             286.10,429.91 285.64,435.68 282.31,439.61
             274.37,448.95 255.70,448.07 250.06,436.91
             246.90,430.66 247.74,427.90 246.74,422.00
             246.74,422.00 245.26,416.00 245.26,416.00
             245.26,416.00 244.00,392.00 244.00,392.00
             244.00,392.00 241.00,354.00 241.00,354.00
             241.00,354.00 239.87,327.00 239.87,327.00
             239.87,327.00 238.13,319.00 238.13,319.00
             238.13,319.00 236.83,302.00 236.83,302.00
             236.83,302.00 235.17,293.00 235.17,293.00
             235.17,293.00 232.78,274.00 232.78,274.00
             232.78,274.00 224.43,252.72 224.43,252.72
             222.84,246.72 225.43,236.71 230.27,232.81
             232.58,230.95 237.14,229.37 240.00,228.53 Z
           M 386.01,337.53
           C 400.46,335.14 408.07,340.03 412.38,354.00
             416.13,366.14 415.51,376.79 417.27,389.00
             417.27,389.00 419.80,402.00 419.80,402.00
             419.80,402.00 424.00,449.00 424.00,449.00
             424.00,449.00 421.54,499.00 421.54,499.00
             420.04,507.50 416.10,519.62 413.09,527.83
             413.09,527.83 410.55,534.04 410.55,534.04
             410.55,534.04 408.85,543.00 408.85,543.00
             407.24,549.21 406.58,549.77 404.31,555.17
             404.31,555.17 401.53,562.99 401.53,562.99
             397.52,572.17 390.37,579.26 381.72,584.12
             368.79,591.38 338.12,592.17 323.00,592.00
             323.00,592.00 302.00,590.41 302.00,590.41
             302.00,590.41 288.00,587.42 288.00,587.42
             288.00,587.42 266.17,583.80 266.17,583.80
             266.17,583.80 258.00,580.90 258.00,580.90
             258.00,580.90 249.00,579.25 249.00,579.25
             249.00,579.25 225.09,570.78 225.09,570.78
             225.09,570.78 216.99,566.12 216.99,566.12
             199.57,557.23 183.02,545.50 173.51,527.91
             173.51,527.91 169.89,520.17 169.89,520.17
             169.89,520.17 160.78,501.83 160.78,501.83
             160.78,501.83 157.16,490.00 157.16,490.00
             157.16,490.00 154.42,482.72 154.42,482.72
             154.42,482.72 151.49,464.00 151.49,464.00
             149.46,454.44 146.23,443.72 146.01,434.00
             145.70,420.18 153.25,412.63 167.00,413.02
             176.10,413.27 182.54,419.50 185.06,428.04
             185.06,428.04 188.32,449.00 188.32,449.00
             188.32,449.00 190.83,457.00 190.83,457.00
             190.83,457.00 192.51,471.00 192.51,471.00
             193.97,478.11 198.00,487.15 200.86,494.00
             203.94,501.37 211.77,514.21 217.46,519.54
             219.78,521.72 223.17,523.51 225.83,525.30
             245.17,538.29 259.78,541.56 282.00,546.18
             282.00,546.18 290.00,548.77 290.00,548.77
             299.48,550.96 309.36,551.43 319.00,552.09
             319.00,552.09 327.00,552.96 327.00,552.96
             327.00,552.96 351.00,551.58 351.00,551.58
             354.35,551.12 359.95,550.55 362.73,548.72
             365.88,546.66 367.33,541.45 368.41,538.00
             368.41,538.00 372.45,527.00 372.45,527.00
             372.45,527.00 375.03,515.00 375.03,515.00
             377.28,507.99 379.36,506.11 381.33,497.00
             381.33,497.00 384.04,479.00 384.04,479.00
             384.04,479.00 384.04,470.00 384.04,470.00
             384.72,464.30 386.20,460.02 385.96,454.00
             385.96,454.00 384.29,443.00 384.29,443.00
             384.29,443.00 382.17,423.00 382.17,423.00
             382.17,423.00 378.96,394.00 378.96,394.00
             378.96,394.00 377.13,386.00 377.13,386.00
             377.13,386.00 376.54,377.00 376.54,377.00
             373.96,362.69 366.57,343.85 386.01,337.53 Z" />
</svg>
