<svg id="Layer_1" data-name="Layer 1" xmlns="http://www.w3.org/2000/svg" viewBox="0 0 538.88 751.95"><path id="Outline" d="M111.83,791.93c1.16-8.1.92-16.27,1.26-24.41,2-47.43,3.4-94.88,6.07-142.27.71-12.48,1.38-25,1.38-37.45a34.38,34.38,0,0,0-1.74-11.36c-1.88-5.39-1.69-10.84,1.54-15.7,1.44-2.16,0-2.71-1.15-3.63-9.64-7.43-18.82-15.39-26.74-24.66-24.31-28.39-40.79-60.64-47-97.72-2.85-16.87-2.59-33.94-2.23-51Q44.43,323.12,48,262.57c.37-6.15-1.33-12.16-2-18.25-3.08-29.85-3.77-59.67,3.84-89,6.49-25,20.73-44.57,43.17-57.89,18-10.68,37.33-18.44,56.67-26.19,23.25-9.31,46.7-18,71.11-23.79,19-4.52,38.32-6.17,57.72-6.44,45.16-.61,90.33-1,135.48.57,16,.57,31.88,2.57,47,8.3a96.45,96.45,0,0,1,45.13,34.8c14.57,20.35,24.79,42.9,33.51,66.23,7.57,20.27,15.58,40.39,20.5,61.53,8,34.48,14.71,69.22,18.57,104.44a460.85,460.85,0,0,1,3,57.79c-.32,20.55,0,41.11-.59,61.66-.68,24.89-9.6,45.79-27.42,63.16a251.45,251.45,0,0,1-45.27,34.71c-2.09,1.28-2.54,2.35-1.89,4.82,8,30.69,17.55,61,23,92.34,3.84,22.12,7.63,44.25,11.23,66.42,4.29,26.42,9.07,52.76,12.62,79.3.66,4.93,1.8,9.82,1.72,14.83H519.76c.53-1.92-.08-3.78-.32-5.65-3.11-24.2-7.46-48.19-11.35-72.26-4-24.85-8.14-49.69-12.54-74.47-5-28.16-12.72-55.66-20.6-83.11-.74-2.58-1.6-2-3.19-1.14A248.8,248.8,0,0,1,440,569a668.4,668.4,0,0,1-138.39,32.23A279,279,0,0,1,205.9,597c-10.84-2.41-21.42-5.69-32-9l-18.67-8c0,8.78.33,17.07-.06,25.32-1.3,27.41-3,54.8-3.89,82.23-.4,13-1,26.06-1.52,39.1q-1.26,32.63-2.51,65.26Zm173.28-716c-2.95-.54-5.87.18-8.81.25-13.62.34-27.2,1.31-40.57,3.94-19.41,3.81-38.09,10.13-56.5,17.26-21.46,8.3-42.95,16.53-63.38,27.26-16.52,8.68-27.69,21.61-32.17,39.71-4.13,16.7-8.34,33.4-6.15,51,1.56,12.47,1.94,25.09,2.91,37.64.19,2.48,1,4.9.61,7.43-.78,5-1.64,10.07-2.32,15.13-1.29,9.54-3.09,19.09-1.57,28.77a64.48,64.48,0,0,1,.4,17.65c-1.21,10.3-1.2,20.61-1.15,30.94,0,6.7-.14,13.4-.21,20.1,0,1.48-.18,3,.6,4.34,1.48,2.48,1.39,5.13,1.31,7.89-.41,15.11-.82,30.3,2.09,45.16,7.63,39.05,26.49,71.62,57.59,96.77,17.47,14.14,36.77,24.9,58.47,31.12,1.05.35,2.08.75,3.15,1,26.44,7.34,53.35,10.74,80.78,8.76,32.08-2.32,63.5-8.63,94.76-16,44.9-10.62,87-27.52,125.05-53.88,12.26-8.49,24-17.55,33.9-28.78a46.27,46.27,0,0,0,11.82-28.32c1.67-24.51,1-49.05,1.18-73.57a385.61,385.61,0,0,0-2.16-39.78c-3.44-36.1-10.16-71.65-18.5-106.88-6.26-26.44-16.59-51.54-26.92-76.58a193.77,193.77,0,0,0-21-38.44c-8.65-12.18-20-20.57-34.36-24.76-11.31-3.31-23-4.33-34.63-4.72-40.28-1.34-80.57-.59-120.85-.67C287.37,75.7,286.24,75.86,285.11,75.94Z" transform="translate(-42.97 -40.49)" fill="#010101"/><path id="Body" d="M173.89,588.05c10.59,3.29,21.17,6.57,32,9a279,279,0,0,0,95.68,4.23A668.4,668.4,0,0,0,440,569a248.8,248.8,0,0,0,31.79-13.73c1.59-.81,2.45-1.44,3.19,1.14,7.88,27.45,15.6,54.95,20.6,83.11,4.4,24.78,8.53,49.62,12.54,74.47,3.89,24.07,8.24,48.06,11.35,72.26.24,1.87.85,3.73.32,5.65H175.16a333.61,333.61,0,0,1-8.84-62.8c-1-24,1.93-47.79,2.3-71.71A219.07,219.07,0,0,1,170.78,628C172.78,614.74,174.75,601.5,173.89,588.05Z" transform="translate(-42.97 -40.49)" fill="#fecaa1"/><path id="BrownCrustBody" d="M173.89,588.05c.86,13.45-1.11,26.69-3.11,39.9a219.07,219.07,0,0,0-2.16,29.47c-.37,23.92-3.27,47.76-2.3,71.71a333.61,333.61,0,0,0,8.84,62.8H147.24q1.26-32.62,2.51-65.26c.5-13,1.12-26.06,1.52-39.1.86-27.43,2.59-54.82,3.89-82.23.39-8.25.06-16.54.06-25.32Z" transform="translate(-42.97 -40.49)" fill="#b06701"/><path id="Face" d="M285.11,75.94c1.13-.08,2.26-.24,3.39-.24,40.28.08,80.57-.67,120.85.67,11.68.39,23.32,1.41,34.63,4.72,14.37,4.19,25.71,12.58,34.36,24.76a193.77,193.77,0,0,1,21,38.44c10.33,25,20.66,50.14,26.92,76.58,8.34,35.23,15.06,70.78,18.5,106.88a385.61,385.61,0,0,1,2.16,39.78c-.22,24.52.49,49.06-1.18,73.57a46.27,46.27,0,0,1-11.82,28.32C524,480.65,512.26,489.71,500,498.2c-38.08,26.36-80.15,43.26-125,53.88-31.26,7.4-62.68,13.71-94.76,16-27.43,2-54.34-1.42-80.78-8.76-1.07-.29-2.1-.69-3.15-1,1.47-5.55-.32-10.28-3.77-14.52-3-3.69-7.23-5.41-11.62-6.69a125.24,125.24,0,0,1-41.2-21.21c-4.2-3.2-7.81-6.86-9.87-11.88A116.72,116.72,0,0,1,122,472.08c-1.45-13.18-3-26.35-5.13-39.45-3.1-19.13-6.28-38.26-7.22-57.67-.4-8.27-1-16.53-1.58-24.79-1.12-14.69-3.38-29.33-4.13-44-1.13-22.08-1.29-44.28,1.83-66.28,2.57-18.18,5.59-36.11,13.21-53.24a117.38,117.38,0,0,1,33-43.46,280.1,280.1,0,0,1,86.45-48.57c10.81-3.79,21.57-7.41,33.16-8.27C277.9,85.88,282.65,82.11,285.11,75.94Zm143.3,230.54c11.51-.2,20.52-5.17,27.28-14.43,5.91-8.09,8.74-17.48,11.33-26.95a281.63,281.63,0,0,0,7.34-36.94c.7-5.2,2.45-10.41.48-15.95-2.6-7.33-9-12.37-16.29-11.8-8.88.69-14.24,5-16,14-2.11,10.77-3.24,21.73-5.6,32.47-1.77,8-3.54,16-7.11,23.53-.87,1.83-1.75,2.55-4.17,1.92-8-2.09-15-6.16-21.88-10.42-10.77-6.64-19.46-16-29.6-23.43-13.89-10.25-24.57-11.26-38.59-2.35-10.17,6.46-18.42,15.19-27.34,23.11-8.09,7.16-17.21,9.25-26.25,4.19-7-3.9-13.2-8.87-17.11-16.36-3.65-7-11-13.82-21.08-11.65a16.34,16.34,0,0,0-12.64,19.24c.85,4.21,3.46,7.25,5.54,10.69,9,14.88,21.63,25.36,38.12,31.07a71.32,71.32,0,0,0,13.5,2.72c7.62,1.07,15.05.71,22.28-2.12,10.52-4.12,18.66-11.59,26.92-18.94,4.63-4.12,9-8.56,14-12.21,1.37-1,2.14-1,3.43.16,5.78,5,11.56,10.05,17.57,14.79a146.45,146.45,0,0,0,33.13,20C412.92,303.89,420.31,306.62,428.41,306.48ZM390.3,197.35c8.66.72,16.62-6.95,16.63-16.25a16.45,16.45,0,0,0-16.51-16.6c-9.81-.23-16.57,7.95-16.74,16.25A16.12,16.12,0,0,0,390.3,197.35ZM145.71,285.84c-8.31-.12-16.36,7.78-16.6,16a17.09,17.09,0,0,0,16.51,17.45c8.06.38,16.68-8.12,17-16.56S154.7,286,145.71,285.84Z" transform="translate(-42.97 -40.49)" fill="#fecaa1"/><path id="BrownCrust" d="M285.11,75.94c-2.46,6.17-7.21,9.94-13.57,10.41-11.59.86-22.35,4.48-33.16,8.27a280.1,280.1,0,0,0-86.45,48.57,117.38,117.38,0,0,0-33,43.46c-7.62,17.13-10.64,35.06-13.21,53.24-3.12,22-3,44.2-1.83,66.28.75,14.67,3,29.31,4.13,44,.63,8.26,1.18,16.52,1.58,24.79.94,19.41,4.12,38.54,7.22,57.67,2.12,13.1,3.68,26.27,5.13,39.45A116.72,116.72,0,0,0,129.8,504c2.06,5,5.67,8.68,9.87,11.88a125.24,125.24,0,0,0,41.2,21.21c4.39,1.28,8.62,3,11.62,6.69,3.45,4.24,5.24,9,3.77,14.52-21.7-6.22-41-17-58.47-31.12-31.1-25.15-50-57.72-57.59-96.77-2.91-14.86-2.5-30.05-2.09-45.16.08-2.76.17-5.41-1.31-7.89-.78-1.32-.61-2.86-.6-4.34.07-6.7.23-13.4.21-20.1,0-10.33-.06-20.64,1.15-30.94a64.48,64.48,0,0,0-.4-17.65c-1.52-9.68.28-19.23,1.57-28.77.68-5.06,1.54-10.09,2.32-15.13.39-2.53-.42-4.95-.61-7.43-1-12.55-1.35-25.17-2.91-37.64-2.19-17.61,2-34.31,6.15-51,4.48-18.1,15.65-31,32.17-39.71,20.43-10.73,41.92-19,63.38-27.26,18.41-7.13,37.09-13.45,56.5-17.26,13.37-2.63,27-3.6,40.57-3.94C279.24,76.12,282.16,75.4,285.11,75.94Z" transform="translate(-42.97 -40.49)" fill="#b06701"/><path id="Mouth" d="M428.41,306.48c-8.1.14-15.49-2.59-22.72-5.66a146.45,146.45,0,0,1-33.13-20c-6-4.74-11.79-9.78-17.57-14.79-1.29-1.12-2.06-1.16-3.43-.16-5.05,3.65-9.39,8.09-14,12.21-8.26,7.35-16.4,14.82-26.92,18.94-7.23,2.83-14.66,3.19-22.28,2.12a71.32,71.32,0,0,1-13.5-2.72c-16.49-5.71-29.09-16.19-38.12-31.07-2.08-3.44-4.69-6.48-5.54-10.69a16.34,16.34,0,0,1,12.64-19.24c10.09-2.17,17.43,4.66,21.08,11.65C268.81,254.53,275,259.5,282,263.4c9,5.06,18.16,3,26.25-4.19,8.92-7.92,17.17-16.65,27.34-23.11,14-8.91,24.7-7.9,38.59,2.35,10.14,7.47,18.83,16.79,29.6,23.43,6.89,4.26,13.89,8.33,21.88,10.42,2.42.63,3.3-.09,4.17-1.92,3.57-7.48,5.34-15.51,7.11-23.53,2.36-10.74,3.49-21.7,5.6-32.47,1.76-9,7.12-13.28,16-14,7.27-.57,13.69,4.47,16.29,11.8,2,5.54.22,10.75-.48,15.95A281.63,281.63,0,0,1,467,265.1c-2.59,9.47-5.42,18.86-11.33,26.95C448.93,301.31,439.92,306.28,428.41,306.48Z" transform="translate(-42.97 -40.49)" fill="#030302"/><path id="REye" d="M390.3,197.35a16.12,16.12,0,0,1-16.62-16.6c.17-8.3,6.93-16.48,16.74-16.25a16.45,16.45,0,0,1,16.51,16.6C406.92,190.4,399,198.07,390.3,197.35Z" transform="translate(-42.97 -40.49)" fill="#070504"/><path id="LEye" d="M145.71,285.84c9,.12,17.22,8.36,16.9,16.92s-8.93,16.94-17,16.56a17.09,17.09,0,0,1-16.51-17.45C129.35,293.62,137.4,285.72,145.71,285.84Z" transform="translate(-42.97 -40.49)" fill="#070504"/><line id="BottomOutline" x1="84.27" y1="739.95" x2="503.94" y2="739.51" fill="none" stroke="#000" stroke-miterlimit="10" stroke-width="24"/></svg>