<?xml version="1.0" encoding="UTF-8" standalone="no"?>
<!DOCTYPE svg PUBLIC "-//W3C//DTD SVG 20010904//EN"
              "http://www.w3.org/TR/2001/REC-SVG-20010904/DTD/svg10.dtd">

<svg xmlns="http://www.w3.org/2000/svg"
     width="2in" height="2in"
     viewBox="0 0 600 600">
  <path id="white"
        fill="white" stroke="none" stroke-width="1"
        d="M 164.00,88.00
           C 162.16,85.58 158.33,79.57 157.47,76.72
             155.93,71.61 157.27,67.34 159.65,62.91
             166.40,50.42 172.57,49.20 184.00,42.64
             188.52,40.05 191.92,36.47 196.00,33.37
             196.00,33.37 209.04,24.82 209.04,24.82
             214.66,21.81 221.04,20.74 227.00,18.62
             227.00,18.62 235.00,15.54 235.00,15.54
             235.00,15.54 276.00,8.00 276.00,8.00
             276.00,8.00 285.00,8.00 285.00,8.00
             296.54,8.06 315.05,15.24 325.00,21.21
             325.00,21.21 337.00,29.50 337.00,29.50
             337.00,29.50 359.00,43.48 359.00,43.48
             359.00,43.48 371.01,53.79 371.01,53.79
             371.01,53.79 388.00,66.65 388.00,66.65
             388.00,66.65 393.49,70.63 393.49,70.63
             400.84,77.32 405.03,85.32 408.21,88.58
             408.21,88.58 424.35,105.17 424.35,105.17
             424.35,105.17 440.61,125.96 440.61,125.96
             440.61,125.96 454.91,141.00 454.91,141.00
             454.91,141.00 463.30,152.96 463.30,152.96
             463.30,152.96 477.41,171.00 477.41,171.00
             477.41,171.00 484.79,182.96 484.79,182.96
             484.79,182.96 490.78,190.09 490.78,190.09
             490.78,190.09 503.54,209.00 503.54,209.00
             506.43,214.00 507.05,217.86 509.14,223.00
             512.34,230.87 514.89,235.19 515.00,244.00
             515.00,244.00 515.00,260.00 515.00,260.00
             514.94,264.83 513.37,276.48 511.95,281.00
             511.95,281.00 508.41,290.00 508.41,290.00
             508.41,290.00 507.49,298.00 507.49,298.00
             507.49,298.00 500.31,327.91 500.31,327.91
             500.31,327.91 497.45,335.04 497.45,335.04
             497.45,335.04 489.99,357.96 489.99,357.96
             489.99,357.96 486.38,366.04 486.38,366.04
             486.38,366.04 480.19,386.00 480.19,386.00
             480.19,386.00 474.46,398.00 474.46,398.00
             474.46,398.00 468.90,414.00 468.90,414.00
             468.90,414.00 464.24,423.00 464.24,423.00
             464.24,423.00 457.93,442.00 457.93,442.00
             457.93,442.00 451.31,455.00 451.31,455.00
             451.31,455.00 447.63,464.00 447.63,464.00
             447.63,464.00 436.38,482.91 436.38,482.91
             436.38,482.91 432.04,488.17 432.04,488.17
             432.04,488.17 425.49,498.96 425.49,498.96
             425.49,498.96 419.03,507.04 419.03,507.04
             419.03,507.04 413.61,515.00 413.61,515.00
             413.61,515.00 406.63,523.00 406.63,523.00
             402.69,528.43 399.18,533.86 394.54,538.82
             384.90,549.11 363.69,564.28 351.00,570.73
             351.00,570.73 335.17,577.30 335.17,577.30
             335.17,577.30 316.00,585.28 316.00,585.28
             316.00,585.28 306.00,587.54 306.00,587.54
             306.00,587.54 300.00,589.57 300.00,589.57
             293.52,591.40 285.74,591.08 279.00,591.00
             269.53,590.88 268.50,587.53 260.00,585.52
             253.76,584.05 250.86,584.77 244.00,581.98
             244.00,581.98 224.09,571.21 224.09,571.21
             224.09,571.21 217.91,565.38 217.91,565.38
             217.91,565.38 211.46,560.61 211.46,560.61
             211.46,560.61 204.54,552.04 204.54,552.04
             204.54,552.04 198.51,545.83 198.51,545.83
             198.51,545.83 193.83,540.04 193.83,540.04
             193.83,540.04 167.43,513.00 167.43,513.00
             167.43,513.00 156.78,500.00 156.78,500.00
             156.78,500.00 140.55,477.01 140.55,477.01
             140.55,477.01 133.75,469.83 133.75,469.83
             133.75,469.83 126.82,458.09 126.82,458.09
             126.82,458.09 115.63,443.17 115.63,443.17
             115.63,443.17 110.92,437.91 110.92,437.91
             110.92,437.91 105.81,431.04 105.81,431.04
             102.88,427.68 101.55,427.13 98.70,422.96
             98.70,422.96 83.81,400.04 83.81,400.04
             83.81,400.04 79.40,393.83 79.40,393.83
             79.40,393.83 74.55,384.00 74.55,384.00
             74.55,384.00 66.17,371.99 66.17,371.99
             66.17,371.99 53.83,348.00 53.83,348.00
             51.28,343.24 48.32,340.16 45.34,335.91
             37.68,324.98 31.49,311.63 32.04,298.00
             32.44,288.08 38.22,274.54 41.33,265.00
             49.13,241.07 49.15,245.82 60.86,225.00
             60.86,225.00 72.22,204.96 72.22,204.96
             72.22,204.96 78.45,193.09 78.45,193.09
             78.45,193.09 105.12,157.91 105.12,157.91
             105.12,157.91 113.61,145.00 113.61,145.00
             124.34,130.50 135.29,115.92 148.00,103.00
             153.63,97.27 156.82,91.85 164.00,88.00 Z
           M 300.00,551.00
           C 306.46,549.79 312.08,546.24 318.09,543.75
             318.09,543.75 330.00,539.63 330.00,539.63
             340.73,534.39 359.31,520.99 367.49,512.54
             367.49,512.54 377.44,499.28 377.44,499.28
             377.44,499.28 390.37,483.72 390.37,483.72
             390.37,483.72 413.74,447.96 413.74,447.96
             413.74,447.96 424.13,426.96 424.13,426.96
             424.13,426.96 429.46,410.00 429.46,410.00
             429.46,410.00 434.26,400.83 434.26,400.83
             434.26,400.83 439.46,386.00 439.46,386.00
             439.46,386.00 445.88,372.00 445.88,372.00
             445.88,372.00 453.94,347.09 453.94,347.09
             460.22,330.57 466.55,313.26 470.50,296.00
             470.50,296.00 473.31,279.00 473.31,279.00
             474.81,271.12 478.90,262.85 479.00,255.00
             479.13,243.96 478.62,247.74 475.45,238.96
             470.28,224.65 465.45,218.91 456.12,207.00
             456.12,207.00 447.06,193.09 447.06,193.09
             447.06,193.09 441.31,185.96 441.31,185.96
             441.31,185.96 425.18,164.00 425.18,164.00
             419.33,156.65 414.02,154.61 406.29,144.00
             406.29,144.00 401.26,136.28 401.26,136.28
             401.26,136.28 392.56,126.09 392.56,126.09
             392.56,126.09 384.26,117.99 384.26,117.99
             384.26,117.99 368.82,99.32 368.82,99.32
             368.82,99.32 350.10,85.14 350.10,85.14
             350.10,85.14 342.90,78.21 342.90,78.21
             342.90,78.21 329.00,68.25 329.00,68.25
             329.00,68.25 320.09,63.20 320.09,63.20
             320.09,63.20 314.83,59.34 314.83,59.34
             314.83,59.34 307.00,54.91 307.00,54.91
             298.06,49.20 290.24,43.55 279.00,44.04
             270.17,44.42 247.18,51.13 238.00,53.98
             234.19,55.16 226.28,56.89 223.61,59.80
             221.46,62.15 222.99,66.84 222.97,70.00
             222.95,74.45 221.26,79.36 218.37,82.79
             215.29,86.43 211.66,86.64 208.41,90.21
             208.41,90.21 204.51,95.83 204.51,95.83
             204.51,95.83 199.55,101.09 199.55,101.09
             199.55,101.09 194.74,107.96 194.74,107.96
             194.74,107.96 189.45,113.28 189.45,113.28
             189.45,113.28 173.96,130.99 173.96,130.99
             173.96,130.99 165.87,138.37 165.87,138.37
             165.87,138.37 159.50,147.00 159.50,147.00
             159.50,147.00 148.26,161.83 148.26,161.83
             148.26,161.83 142.40,169.01 142.40,169.01
             142.40,169.01 131.90,185.00 131.90,185.00
             131.90,185.00 123.53,195.00 123.53,195.00
             123.53,195.00 116.57,204.91 116.57,204.91
             116.57,204.91 110.41,212.04 110.41,212.04
             110.41,212.04 96.41,238.00 96.41,238.00
             96.41,238.00 91.00,247.00 91.00,247.00
             91.00,247.00 83.97,260.00 83.97,260.00
             83.97,260.00 79.56,267.00 79.56,267.00
             79.56,267.00 73.98,284.00 73.98,284.00
             72.78,287.83 68.95,296.65 69.31,300.00
             70.22,308.39 77.87,316.56 82.40,323.17
             82.40,323.17 92.58,342.00 92.58,342.00
             92.58,342.00 98.58,353.00 98.58,353.00
             98.58,353.00 106.13,364.01 106.13,364.01
             106.13,364.01 111.04,374.00 111.04,374.00
             111.04,374.00 120.10,387.00 120.10,387.00
             120.10,387.00 124.60,394.58 124.60,394.58
             124.60,394.58 133.51,405.83 133.51,405.83
             133.51,405.83 138.54,411.09 138.54,411.09
             138.54,411.09 143.61,419.00 143.61,419.00
             143.61,419.00 151.96,429.00 151.96,429.00
             151.96,429.00 163.64,446.00 163.64,446.00
             163.64,446.00 171.38,455.09 171.38,455.09
             171.38,455.09 193.58,485.75 193.58,485.75
             193.58,485.75 204.95,497.09 204.95,497.09
             204.95,497.09 210.45,503.41 210.45,503.41
             210.45,503.41 215.96,508.10 215.96,508.10
             215.96,508.10 222.37,515.72 222.37,515.72
             222.37,515.72 227.82,521.04 227.82,521.04
             227.82,521.04 233.75,528.57 233.75,528.57
             240.69,536.04 252.92,547.18 263.00,549.00
             263.00,549.00 259.51,525.00 259.51,525.00
             259.51,525.00 258.04,516.00 258.04,516.00
             258.04,516.00 256.26,509.00 256.26,509.00
             256.26,509.00 255.00,490.00 255.00,490.00
             255.00,490.00 255.00,403.00 255.00,403.00
             249.84,402.63 250.96,402.14 246.83,401.20
             224.93,396.18 217.66,387.45 203.42,371.00
             198.72,365.56 192.73,359.27 189.37,352.91
             187.22,348.86 183.67,340.41 182.43,336.00
             181.24,331.79 180.84,326.96 178.39,323.22
             175.91,319.43 169.26,319.15 165.04,316.64
             157.39,312.09 152.69,302.73 152.10,294.00
             151.43,284.21 158.23,274.11 166.01,268.69
             166.01,268.69 177.96,261.67 177.96,261.67
             186.15,256.73 193.06,252.32 202.99,256.48
             210.51,259.64 210.85,265.97 214.89,271.72
             218.60,276.98 222.65,279.84 225.15,287.09
             228.28,296.14 221.00,306.87 214.00,312.00
             214.93,318.01 220.15,332.85 223.45,337.71
             227.03,342.97 232.46,347.61 236.84,352.17
             245.16,360.82 242.07,361.49 255.00,366.00
             255.00,366.00 255.00,340.00 255.00,340.00
             255.00,340.00 254.00,325.00 254.00,325.00
             254.00,325.00 254.00,303.00 254.00,303.00
             254.00,303.00 256.26,274.09 256.26,274.09
             256.26,274.09 257.80,268.83 257.80,268.83
             257.80,268.83 260.68,253.00 260.68,253.00
             260.68,253.00 262.00,241.00 262.00,241.00
             246.41,237.34 239.98,222.74 240.00,208.00
             240.01,202.98 242.29,190.48 243.99,186.00
             243.99,186.00 248.56,177.00 248.56,177.00
             250.22,173.26 251.63,168.23 254.39,165.26
             262.67,156.33 276.07,152.14 288.00,152.00
             294.01,151.93 300.61,151.23 305.99,154.36
             314.25,159.19 313.90,165.78 316.07,171.00
             319.04,178.16 323.86,184.97 323.87,193.00
             323.87,193.00 323.87,201.00 323.87,201.00
             322.54,207.85 315.21,222.70 310.53,227.90
             306.64,232.23 303.00,232.58 300.74,236.47
             298.84,239.73 299.26,243.45 298.82,247.00
             298.82,247.00 295.42,266.00 295.42,266.00
             295.42,266.00 291.04,310.00 291.04,310.00
             291.04,310.00 291.04,324.00 291.04,324.00
             291.04,324.00 292.00,336.00 292.00,336.00
             292.00,336.00 292.00,371.00 292.00,371.00
             292.00,371.00 292.97,384.00 292.97,384.00
             292.97,384.00 292.00,398.00 292.00,398.00
             292.00,398.00 292.00,443.00 292.00,443.00
             301.30,440.35 309.28,434.81 318.00,430.90
             318.00,430.90 335.72,424.81 335.72,424.81
             337.66,423.84 346.81,416.29 348.20,414.63
             348.20,414.63 351.41,410.05 351.41,410.05
             356.76,403.62 355.87,408.61 361.00,398.00
             345.54,397.14 340.85,382.27 341.00,369.00
             341.21,351.58 352.31,339.58 370.00,340.01
             378.16,340.21 380.59,342.40 386.42,347.56
             389.86,350.61 391.66,351.45 393.64,356.00
             393.64,356.00 396.67,370.00 396.67,370.00
             399.15,377.72 402.38,382.48 400.55,391.00
             400.55,391.00 395.65,411.00 395.65,411.00
             391.03,422.36 383.17,430.07 375.17,439.00
             370.79,443.89 368.73,447.52 363.00,451.40
             363.00,451.40 347.00,459.91 347.00,459.91
             347.00,459.91 337.00,463.06 337.00,463.06
             337.00,463.06 322.96,469.97 322.96,469.97
             315.60,473.44 314.09,473.35 307.00,475.67
             303.90,476.68 294.78,479.96 293.02,482.51
             291.17,485.18 292.90,495.18 293.02,499.00
             293.02,499.00 294.58,511.00 294.58,511.00
             296.64,524.30 300.00,537.50 300.00,551.00 Z" />
</svg>
