<?xml version="1.0" encoding="UTF-8" standalone="no"?>
<!DOCTYPE svg PUBLIC "-//W3C//DTD SVG 20010904//EN"
              "http://www.w3.org/TR/2001/REC-SVG-20010904/DTD/svg10.dtd">

<svg xmlns="http://www.w3.org/2000/svg"
     width="2in" height="2in"
     viewBox="0 0 180 180">
  <path id="white"
        fill="white" stroke="none" stroke-width="1"
        d="M 86.00,36.00
           C 84.19,29.30 79.91,20.04 81.53,13.00
             83.43,4.82 90.38,2.18 98.00,2.02
             111.70,1.73 123.13,11.26 131.83,21.00
             135.51,25.13 145.06,39.07 147.83,44.00
             147.83,44.00 153.31,55.00 153.31,55.00
             153.31,55.00 159.08,66.00 159.08,66.00
             159.08,66.00 162.67,77.00 162.67,77.00
             164.65,82.96 167.26,88.81 168.38,95.00
             170.42,106.17 170.02,116.73 170.00,128.00
             169.98,138.53 168.03,140.52 164.42,150.00
             162.88,154.06 162.11,157.39 158.79,160.48
             149.03,169.59 136.85,171.85 124.00,172.00
             124.00,172.00 106.00,173.00 106.00,173.00
             106.00,173.00 87.00,173.00 87.00,173.00
             79.77,172.91 76.70,171.51 70.00,170.26
             70.00,170.26 48.00,166.73 48.00,166.73
             43.00,165.99 38.01,165.49 34.21,161.78
             32.24,159.85 30.93,157.31 29.47,155.00
             21.10,141.71 24.28,132.47 27.00,118.00
             27.00,118.00 11.00,118.00 11.00,118.00
             8.44,117.98 5.40,118.16 3.31,116.40
             -1.25,112.55 1.48,102.21 4.25,98.00
             8.66,91.28 29.11,72.43 36.00,68.14
             36.00,68.14 45.00,64.00 45.00,64.00
             39.67,61.69 29.93,56.71 26.72,51.96
             19.68,41.53 27.08,24.98 39.00,22.39
             53.70,19.19 72.15,31.16 86.00,36.00 Z
           M 16.00,106.06
           C 16.00,106.06 24.00,106.06 24.00,106.06
             27.53,105.99 35.32,104.81 37.89,106.06
             44.80,109.89 40.27,117.59 38.90,123.00
             36.28,133.30 34.69,143.19 44.02,150.61
             50.22,155.54 64.88,156.35 73.00,158.00
             89.82,161.43 85.49,161.08 103.00,161.00
             103.00,161.00 115.00,160.04 115.00,160.04
             121.75,159.74 134.03,159.78 140.00,157.10
             143.37,155.58 147.86,152.57 150.20,149.70
             154.53,144.41 158.51,129.92 158.26,123.00
             158.26,123.00 156.48,99.00 156.48,99.00
             156.48,99.00 151.86,85.00 151.86,85.00
             151.86,85.00 147.39,71.00 147.39,71.00
             147.39,71.00 142.31,62.00 142.31,62.00
             142.31,62.00 137.63,52.00 137.63,52.00
             137.63,52.00 125.33,34.00 125.33,34.00
             121.40,29.01 112.44,20.10 107.00,16.99
             104.48,15.55 99.18,13.98 96.41,16.02
             94.08,18.01 95.42,23.42 96.41,26.00
             99.50,36.56 105.86,41.33 110.19,50.00
             112.13,53.88 114.70,60.45 108.94,62.61
             104.88,64.14 97.66,57.43 94.00,55.20
             82.51,48.21 66.70,41.00 54.00,36.43
             48.90,34.60 42.47,32.64 38.75,38.13
             37.76,39.60 37.35,41.22 37.84,42.96
             38.84,46.42 43.06,48.26 46.00,49.75
             46.00,49.75 56.00,55.03 56.00,55.03
             60.35,57.20 67.27,58.83 68.89,64.04
             71.19,71.45 60.73,72.89 56.00,74.15
             42.15,77.86 40.40,81.38 30.00,90.08
             24.10,95.01 19.11,98.71 16.00,106.06 Z
           M 87.00,36.00
           C 87.00,36.00 86.00,36.00 86.00,36.00
             86.00,36.00 87.00,37.00 87.00,37.00
             87.00,37.00 87.00,36.00 87.00,36.00 Z
           M 86.00,88.65
           C 99.55,85.84 111.17,89.53 119.36,101.00
             124.37,108.01 126.63,124.35 118.79,130.00
             114.61,133.01 107.95,133.05 103.00,133.00
             94.00,132.89 80.87,127.60 75.70,119.99
             68.71,109.70 75.15,93.22 86.00,88.65 Z
           M 89.04,97.60
           C 86.16,99.27 85.41,99.90 83.92,103.00
             77.55,116.21 91.96,123.48 103.00,123.96
             108.86,124.21 113.84,123.94 114.66,117.00
             116.25,103.50 100.89,95.07 89.04,97.60 Z" />
</svg>
