<?xml version="1.0" encoding="UTF-8" standalone="no"?>
<!DOCTYPE svg PUBLIC "-//W3C//DTD SVG 20010904//EN"
              "http://www.w3.org/TR/2001/REC-SVG-20010904/DTD/svg10.dtd">

<svg xmlns="http://www.w3.org/2000/svg"
     width="2in" height="2in"
     viewBox="0 0 600 600">
  <path id="videos"
        fill="white" stroke="none" stroke-width="1"
        d="M 336.00,84.21
           C 336.00,84.21 373.00,84.21 373.00,84.21
             389.51,84.00 415.34,84.25 431.00,88.59
             436.20,90.03 441.07,92.43 446.00,94.58
             456.03,98.94 461.40,101.47 469.91,108.66
             482.51,119.30 492.36,133.72 498.55,149.00
             498.55,149.00 503.69,164.00 503.69,164.00
             503.69,164.00 510.50,184.00 510.50,184.00
             510.50,184.00 516.28,215.00 516.28,215.00
             516.28,215.00 523.50,246.00 523.50,246.00
             523.50,246.00 526.50,263.00 526.50,263.00
             526.50,263.00 529.65,273.00 529.65,273.00
             532.38,281.82 531.90,287.14 532.00,296.00
             532.00,296.00 534.00,318.00 534.00,318.00
             534.00,318.00 534.00,335.00 534.00,335.00
             533.98,346.21 531.13,364.96 528.50,376.00
             528.50,376.00 525.50,386.00 525.50,386.00
             519.98,409.20 520.16,415.04 506.56,436.00
             498.81,447.96 479.82,461.78 467.00,468.19
             467.00,468.19 447.00,477.44 447.00,477.44
             447.00,477.44 425.00,488.32 425.00,488.32
             425.00,488.32 403.00,500.68 403.00,500.68
             395.14,504.81 375.87,511.39 367.00,513.50
             350.52,517.42 322.23,519.03 305.00,519.00
             305.00,519.00 273.00,517.00 273.00,517.00
             273.00,517.00 215.00,518.00 215.00,518.00
             215.00,518.00 171.00,510.75 171.00,510.75
             171.00,510.75 139.00,504.50 139.00,504.50
             139.00,504.50 103.00,495.96 103.00,495.96
             103.00,495.96 82.00,488.69 82.00,488.69
             68.56,483.91 54.97,478.22 45.61,466.83
             41.29,461.59 37.38,451.56 35.35,445.00
             33.56,439.25 33.01,433.99 33.00,428.00
             33.00,428.00 33.00,399.00 33.00,399.00
             33.00,399.00 32.00,382.00 32.00,382.00
             32.00,382.00 32.00,340.00 32.00,340.00
             32.00,340.00 35.00,305.00 35.00,305.00
             35.00,305.00 35.00,205.00 35.00,205.00
             35.00,205.00 34.00,188.00 34.00,188.00
             33.98,176.70 34.41,165.17 36.32,154.00
             36.32,154.00 44.00,131.00 44.00,131.00
             48.55,117.64 51.19,105.05 67.91,105.05
             74.09,105.06 80.20,100.12 87.00,98.50
             96.85,96.16 103.11,96.05 113.00,96.00
             113.00,96.00 129.00,95.00 129.00,95.00
             129.00,95.00 145.00,95.00 145.00,95.00
             145.00,95.00 189.00,92.00 189.00,92.00
             189.00,92.00 206.00,92.00 206.00,92.00
             206.00,92.00 224.00,91.00 224.00,91.00
             224.00,91.00 239.00,90.00 239.00,90.00
             239.00,90.00 265.00,89.00 265.00,89.00
             265.00,89.00 275.00,88.04 275.00,88.04
             275.00,88.04 287.00,88.04 287.00,88.04
             287.00,88.04 302.00,87.00 302.00,87.00
             313.07,86.98 325.09,86.21 336.00,84.21 Z
           M 344.00,116.14
           C 344.00,116.14 310.00,119.00 310.00,119.00
             310.00,119.00 288.00,120.00 288.00,120.00
             288.00,120.00 243.00,122.00 243.00,122.00
             243.00,122.00 233.00,123.00 233.00,123.00
             233.00,123.00 221.00,123.00 221.00,123.00
             221.00,123.00 209.00,124.00 209.00,124.00
             209.00,124.00 193.00,124.00 193.00,124.00
             193.00,124.00 152.00,127.00 152.00,127.00
             152.00,127.00 131.00,127.00 131.00,127.00
             131.00,127.00 116.00,128.00 116.00,128.00
             103.13,128.06 96.38,128.92 85.00,135.14
             82.81,136.33 78.01,138.29 76.50,139.70
             73.88,142.12 71.84,149.47 70.67,153.00
             67.59,162.24 65.62,175.27 66.04,185.00
             66.04,185.00 67.00,198.00 67.00,198.00
             67.00,198.00 67.00,309.00 67.00,309.00
             67.00,309.00 64.00,347.00 64.00,347.00
             64.00,347.00 64.00,379.00 64.00,379.00
             64.00,379.00 65.00,395.00 65.00,395.00
             65.00,395.00 65.00,421.00 65.00,421.00
             65.01,427.75 66.30,439.29 70.14,444.90
             73.89,450.37 90.49,458.36 97.00,460.38
             97.00,460.38 105.00,462.35 105.00,462.35
             105.00,462.35 154.00,474.72 154.00,474.72
             154.00,474.72 185.00,479.92 185.00,479.92
             196.00,481.87 211.08,485.87 222.00,486.00
             222.00,486.00 236.00,486.00 236.00,486.00
             236.00,486.00 251.00,485.00 251.00,485.00
             251.00,485.00 277.00,485.00 277.00,485.00
             277.00,485.00 312.00,487.00 312.00,487.00
             312.00,487.00 322.00,486.09 322.00,486.09
             339.26,484.91 349.78,484.83 367.00,480.25
             382.97,475.99 389.42,470.33 403.00,462.86
             403.00,462.86 417.00,456.31 417.00,456.31
             417.00,456.31 443.00,443.25 443.00,443.25
             443.00,443.25 456.00,437.20 456.00,437.20
             463.95,432.85 476.09,422.58 481.04,415.00
             488.53,403.51 488.49,399.32 491.75,387.00
             491.75,387.00 495.50,373.00 495.50,373.00
             498.98,358.36 501.98,343.15 502.00,328.00
             502.00,328.00 500.00,300.00 500.00,300.00
             499.79,281.71 498.38,286.73 495.29,272.00
             495.29,272.00 490.50,247.00 490.50,247.00
             490.50,247.00 487.75,238.00 487.75,238.00
             487.75,238.00 483.93,220.00 483.93,220.00
             483.93,220.00 479.50,194.00 479.50,194.00
             479.50,194.00 474.67,179.00 474.67,179.00
             469.01,161.66 463.65,145.95 448.91,133.90
             432.43,120.42 418.28,118.33 398.00,116.91
             398.00,116.91 374.00,116.14 374.00,116.14
             374.00,116.14 344.00,116.14 344.00,116.14 Z
           M 158.00,332.00
           C 159.11,323.66 160.99,316.53 161.00,308.00
             161.00,308.00 162.00,287.00 162.00,287.00
             162.00,287.00 162.00,252.00 162.00,252.00
             162.00,252.00 163.00,237.00 163.00,237.00
             163.12,226.42 161.93,214.33 176.00,212.21
             185.88,210.72 189.01,216.03 195.00,218.29
             195.00,218.29 210.00,221.75 210.00,221.75
             210.00,221.75 233.00,228.67 233.00,228.67
             233.00,228.67 271.00,237.51 271.00,237.51
             271.00,237.51 289.00,242.50 289.00,242.50
             306.32,246.61 323.32,250.68 340.00,257.06
             346.65,259.61 352.76,263.32 359.00,266.69
             371.54,273.48 383.38,277.67 382.99,294.00
             382.44,316.68 351.32,329.56 333.00,335.67
             333.00,335.67 319.00,339.59 319.00,339.59
             319.00,339.59 308.00,343.25 308.00,343.25
             308.00,343.25 240.00,356.72 240.00,356.72
             240.00,356.72 202.00,359.17 202.00,359.17
             202.00,359.17 181.00,361.16 181.00,361.16
             172.87,362.05 166.51,364.22 158.00,363.98
             139.64,363.48 138.51,342.93 147.21,335.64
             150.52,332.86 153.87,332.23 158.00,332.00 Z
           M 344.00,295.00
           C 344.00,295.00 330.00,288.31 330.00,288.31
             330.00,288.31 311.00,281.35 311.00,281.35
             311.00,281.35 291.00,276.50 291.00,276.50
             291.00,276.50 261.00,268.50 261.00,268.50
             261.00,268.50 241.00,264.50 241.00,264.50
             241.00,264.50 194.00,252.00 194.00,252.00
             194.00,277.46 194.05,302.65 192.00,328.00
             192.00,328.00 217.00,326.00 217.00,326.00
             229.07,325.86 237.27,324.02 249.00,322.08
             266.32,319.21 288.27,314.89 305.00,310.04
             316.23,306.78 335.42,302.80 344.00,295.00 Z" />
</svg>
