<svg id="wp" xmlns="http://www.w3.org/2000/svg" viewBox="0 0 132.572 134.456"><path d="M93.513,9.908a22,22,0,0,0-9.859-4.584,38.882,38.882,0,0,0-10-.42,113.523,113.523,0,0,0-22.2,4.176c-6.783,1.963-13.74,4.383-19.688,8.262A44.776,44.776,0,0,0,17.553,32.965,112.919,112.919,0,0,0,8.7,52.918a85.129,85.129,0,0,0-4.385,21.64c-.848,12.947,2.194,26.75,9.9,37.361a50.166,50.166,0,0,0,15.5,13.931A98.3,98.3,0,0,0,48.863,134c14.108,4.59,29.274,6.86,43.955,3.849,13.234-2.714,25.2-9.928,32.932-21.1,7.787-11.247,11.1-25.683,10.993-39.221A77.239,77.239,0,0,0,125.454,37.8,78.474,78.474,0,0,0,98.623,11.516a71.812,71.812,0,0,0-7.97-4.034,5.476,5.476,0,0,0-3.853-.5,5.094,5.094,0,0,0-2.988,2.3c-1.138,2.154-.77,5.734,1.794,6.841a74.013,74.013,0,0,1,15.066,8.794c.186.14.773.521-.089-.069.317.217.613.486.911.728q.755.612,1.493,1.244,1.772,1.518,3.445,3.145a73.9,73.9,0,0,1,5.769,6.307c.161.2,1.473,1.767.659.821.461.535.858,1.145,1.269,1.72q1.3,1.816,2.485,3.713a70.192,70.192,0,0,1,4.14,7.633q.457.987.884,1.986c-.447-1.053.107.283.159.414q.242.6.471,1.216.843,2.236,1.535,4.527a72.482,72.482,0,0,1,2.157,9.312c.071.429.133.859.2,1.289.222,1.434-.106-1.048.051.395.078.721.164,1.44.23,2.162q.228,2.49.285,4.992a72.738,72.738,0,0,1-.43,9.766c-.032.288-.067.575-.1.863-.171,1.441.178-1.038-.056.394-.117.715-.225,1.431-.353,2.144q-.463,2.568-1.117,5.1-.524,2.025-1.171,4.016-.389,1.19-.823,2.364c-.1.261-.2.521-.3.78-.076.2-.759,1.857-.281.738a52.142,52.142,0,0,1-4.288,8.067q-.567.868-1.172,1.71-.363.505-.741,1c.71-.928-.145.163-.248.288a41.437,41.437,0,0,1-3.049,3.318c-1.05,1.024-2.164,1.961-3.3,2.892.789-.649.245-.184.065-.054-.323.234-.641.472-.967.7q-.977.689-1.989,1.325c-1.237.779-2.513,1.5-3.818,2.161q-.891.453-1.8.869c-.364.167-.731.328-1.1.487,1.084-.47-.042.01-.288.107a55.471,55.471,0,0,1-8.657,2.605,33.588,33.588,0,0,1-4.162.742c1.306-.112-.047,0-.266.026-.266.03-.533.059-.8.086q-1.467.148-2.939.225a71.828,71.828,0,0,1-10.32-.216c-.78-.071-1.557-.164-2.336-.247-1.542-.165,1,.159-.535-.067-.31-.046-.621-.09-.931-.138q-2.793-.429-5.557-1.031a121.757,121.757,0,0,1-19.35-5.968c-.4-.158-.792-.32-1.188-.483-.885-.363-.161-.07.013.006-.783-.342-1.565-.686-2.339-1.049-1.415-.662-2.81-1.366-4.177-2.124s-2.693-1.561-3.986-2.427q-.879-.59-1.733-1.217c-.122-.089-1.217-.966-.334-.246-.329-.268-.659-.532-.984-.806a40.482,40.482,0,0,1-3.264-3.072q-.677-.711-1.317-1.454-.384-.444-.755-.9c-.289-.355-.689-.905-.184-.22a47.546,47.546,0,0,1-4.575-7.523c-.312-.645-.646-1.3-.9-1.968.449,1.187-.289-.759-.379-1q-.834-2.22-1.462-4.511-.525-1.911-.912-3.856-.232-1.166-.414-2.343a5.016,5.016,0,0,1-.116-.784c-.033,1.322-.031-.333-.063-.638a59.9,59.9,0,0,1-.242-9.182q.115-2.392.4-4.772c.03-.252.173-1.259.028-.254.065-.451.132-.9.205-1.353q.217-1.352.483-2.695a86.292,86.292,0,0,1,2.544-9.739q.774-2.4,1.671-4.767.407-1.074.835-2.14c.172-.426.348-.851.523-1.276-.392.95.187-.43.216-.5,1.286-2.958,2.673-5.882,4.213-8.717.738-1.36,1.516-2.7,2.351-4q.567-.885,1.169-1.747c.241-.344.492-.68.737-1.021q.512-.678-.017.014.194-.246.393-.489a35.539,35.539,0,0,1,2.976-3.231q.843-.8,1.745-1.546c.192-.158.959-.732.166-.144.458-.339.921-.672,1.393-.992a41.689,41.689,0,0,1,3.67-2.2q1.137-.609,2.306-1.156.389-.183.782-.36c.183-.083,1.859-.784.784-.35a110.977,110.977,0,0,1,19.478-5.8q2.551-.517,5.122-.92.468-.073.936-.143c.1-.015,1.652-.231.545-.083q1.285-.173,2.577-.306c1.447-.148,2.9-.248,4.357-.266.662-.009,1.323,0,1.984.028.395.017.788.041,1.182.074.2.017,1.563.117.227-.005a19.946,19.946,0,0,1,4.1,1.005c1.164.365-.635-.347.035,0,.281.147.572.273.851.423q.5.272.986.582c.178.114,1.206.884.239.123a5.45,5.45,0,0,0,3.536,1.464,5.09,5.09,0,0,0,3.535-1.464c1.654-1.8,2.194-5.343,0-7.072Z" transform="translate(-4.173 -4.76)" style="fill:#fff"/><path d="M21.942,64.553q9.9,22.57,21.923,44.117a5.046,5.046,0,0,0,8.635,0c7.774-13.409,15.507-26.932,20.81-41.551a113.009,113.009,0,0,0,3.752-12.507H67.419A92.167,92.167,0,0,0,97.053,96.525c4.383,3.443,8.966,6.526,14.383,8.087a5.048,5.048,0,0,0,6.15-3.492,93.744,93.744,0,0,0,.509-36.126,86.774,86.774,0,0,0-4.8-16.8,72.129,72.129,0,0,0-7.74-15.007c-3.666-5.194-8.3-9.931-14.235-12.452a5.492,5.492,0,0,0-3.853-.5,5.094,5.094,0,0,0-2.988,2.3c-1.132,2.142-.777,5.749,1.793,6.841a24.444,24.444,0,0,1,3.089,1.564q.819.494,1.6,1.05a4.812,4.812,0,0,1,.617.454c-.823-.844,0,.023.182.177a30.791,30.791,0,0,1,2.508,2.392q.6.636,1.164,1.3c.211.247.413.5.623.749.675.8-.5-.7.177.223a57.4,57.4,0,0,1,3.894,6.13q.87,1.593,1.655,3.231.427.887.835,1.783c.12.265.24.531.357.8.129.291.526,1.229.186.414A86.465,86.465,0,0,1,108.038,65.5q.4,1.929.706,3.874.069.432.133.864c0-.01.2,1.41.094.636s.077.648.076.637q.077.651.144,1.3.417,4.026.461,8.078a86.694,86.694,0,0,1-.386,9.172c-.077.8-.171,1.595-.263,2.391-.024.208-.14.982.007-.028-.063.433-.124.866-.191,1.3-.247,1.585-.543,3.162-.875,4.731l6.15-3.492c-.477-.138-.95-.283-1.419-.446-.317-.111-1.458-.585-.582-.194a32.78,32.78,0,0,1-3.03-1.542c-.863-.5-1.7-1.033-2.528-1.594-.413-.28-.821-.568-1.225-.86-.174-.126-.346-.252-.518-.379-.1-.072-1.033-.772-.516-.381.446.336-.093-.073-.152-.119-.212-.168-.424-.335-.635-.5q-.553-.443-1.1-.9-1.17-.969-2.3-1.981-2.271-2.02-4.394-4.2-2.052-2.1-3.958-4.343-.919-1.08-1.8-2.189c-.225-.282-.921-1.2-.341-.426-.324-.433-.652-.862-.972-1.3A87.571,87.571,0,0,1,82.21,63.532q-1.6-2.938-2.962-5.993c-.155-.347-.707-1.635-.3-.665q-.314-.748-.613-1.5-.672-1.7-1.272-3.419a5,5,0,0,0-9.643,0A114.171,114.171,0,0,1,63.2,65.727q-.632,1.688-1.309,3.356-.337.835-.687,1.666c.418-.994-.31.71-.384.878q-1.446,3.311-3.032,6.559c-4.229,8.7-9.075,17.075-13.923,25.437H52.5Q40.488,82.1,30.577,59.505c-1.055-2.4-4.753-3.14-6.841-1.793-2.492,1.606-2.922,4.269-1.794,6.841Z" transform="translate(-4.173 -4.76)" style="fill:#fff"/></svg>